<svg width="183" height="168" viewBox="0 0 183 168" fill="none" xmlns="http://www.w3.org/2000/svg">
<path d="M172.251 112C172.251 142.615 145.342 167.5 112.062 167.5C78.7826 167.5 51.8738 142.615 51.8738 112C51.8738 81.3853 78.7826 56.5 112.062 56.5C145.342 56.5 172.251 81.3853 172.251 112Z" stroke="#979797"/>
<path d="M182.282 55.9999C182.282 86.6146 155.373 111.5 122.094 111.5C88.8138 111.5 61.905 86.6146 61.905 55.9999C61.905 25.3853 88.8138 0.5 122.094 0.5C155.373 0.5 182.282 25.3853 182.282 55.9999Z" stroke="#979797"/>
<path d="M121.092 84.9999C121.092 115.615 94.1831 140.5 60.9034 140.5C27.6236 140.5 0.714844 115.615 0.714844 84.9999C0.714844 54.3853 27.6236 29.5 60.9034 29.5C94.1831 29.5 121.092 54.3853 121.092 84.9999Z" stroke="#B7B7B7"/>
</svg>
