<svg width="161" height="124" viewBox="0 0 161 124" fill="none" xmlns="http://www.w3.org/2000/svg">
<path d="M160.5 77.5001C160.5 90.0866 151.664 101.576 137.172 109.948C122.693 118.311 102.658 123.5 80.5004 123.5C58.3427 123.5 38.3072 118.311 23.8282 109.948C9.33612 101.576 0.5 90.0866 0.5 77.5001C0.5 64.9136 9.33612 53.4237 23.8282 45.0525C38.3072 36.689 58.3427 31.5 80.5004 31.5C102.658 31.5 122.693 36.689 137.172 45.0525C151.664 53.4237 160.5 64.9136 160.5 77.5001Z" stroke="#B7B7B7"/>
<path d="M160.5 46.5C160.5 59.0865 151.664 70.5763 137.172 78.9475C122.693 87.311 102.658 92.5 80.5004 92.5C58.3427 92.5 38.3072 87.311 23.8282 78.9475C9.33612 70.5763 0.5 59.0865 0.5 46.5C0.5 33.9135 9.33612 22.4237 23.8282 14.0525C38.3072 5.68895 58.3427 0.5 80.5004 0.5C102.658 0.5 122.693 5.68895 137.172 14.0525C151.664 22.4237 160.5 33.9135 160.5 46.5Z" stroke="#B7B7B7"/>
</svg>
