<svg width="511" height="511" viewBox="0 0 511 511" fill="none" xmlns="http://www.w3.org/2000/svg">
<mask id="mask0_438_2" style="mask-type:luminance" maskUnits="userSpaceOnUse" x="0" y="0" width="511" height="511">
<path d="M255.499 510.768C396.48 510.768 510.768 396.48 510.768 255.499C510.768 114.518 396.48 0.230667 255.499 0.230667C114.518 0.230667 0.230469 114.518 0.230469 255.499C0.230469 396.48 114.518 510.768 255.499 510.768Z" fill="white"/>
</mask>
<g mask="url(#mask0_438_2)">
<path d="M926.093 -262.767C926.093 -262.767 898.721 -262.767 851.798 -262.767C756.205 -259.67 664.442 -247.207 565.881 -266.467C426.539 -293.654 298.524 -326.507 156.913 -303.851C-28.878 -274.394 -165.956 -133.921 -212.403 46.206C-213.537 54.1366 -219.201 64.3333 -225.998 63.1996C-240.726 60.9335 -245.258 41.6753 -252.055 28.0815C-297.37 -71.611 -284.908 -224.549 -418.588 -257.404C-419.72 -258.535 -416.322 -266.467 -417.455 -270.997C-296.237 -259.67 -283.774 -123.723 -248.656 -31.9607C-244.126 -20.6303 -231.663 -1.37068 -218.069 -12.7011C-206.74 -21.7641 -201.076 -34.2254 -195.411 -46.6854C-100.249 -243.809 114.997 -348.032 329.111 -315.18C506.973 -287.992 674.638 -254.005 851.798 -276.459C898.721 -276.459 926.093 -276.459 926.093 -276.459V-262.767Z" fill="white" fill-opacity="0.3"/>
<path d="M926.096 -224.77C926.096 -224.77 898.723 -224.77 851.814 -224.73C697.297 -199.626 553.422 -240.411 399.352 -276.66C223.756 -316.313 32.2988 -290.257 -88.9194 -145.248C-193.144 -22.8963 -198.807 143.634 -137.633 282.981C-205.604 256.924 -238.459 175.356 -265.648 110.782C-298.501 34.8799 -312.095 -44.4206 -340.417 -121.458C-355.144 -159.976 -381.2 -190.563 -418.586 -210.954C-423.116 -213.22 -420.852 -221.15 -419.718 -226.814C-376.668 -212.089 -346.081 -178.102 -330.221 -136.185C-287.171 -20.6302 -283.772 113.048 -193.143 204.813C-188.612 209.344 -185.212 196.882 -186.345 191.216C-206.737 30.3477 -152.359 -131.655 -9.61614 -225.681C201.098 -365.024 426.541 -270.996 648.585 -233.612C717.691 -222.281 783.397 -238.143 851.802 -238.459C898.724 -238.462 926.096 -238.462 926.096 -238.462V-224.77Z" fill="white" fill-opacity="0.3"/>
<path d="M926.094 -186.773C926.094 -186.773 898.721 -186.773 851.967 -186.283C763.002 -173.57 673.507 -178.101 586.274 -206.422C384.622 -273.263 145.586 -331.038 -35.6741 -176.967C-139.9 -87.4717 -184.081 53.0062 -146.697 183.287C-110.444 309.036 -1.68833 391.737 114.996 435.918C-69.6626 437.052 -225.999 286.378 -292.839 119.845C-332.49 23.5512 -341.553 -87.4689 -423.121 -163.372C-425.387 -165.638 -424.253 -179.232 -423.121 -178.1C-381.204 -155.443 -357.412 -113.525 -344.952 -67.0783C-293.973 128.911 -205.608 344.157 2.84104 401.932C3.97339 390.604 -6.22189 387.207 -13.0201 382.675C-124.039 295.44 -190.879 166.294 -159.157 23.5512C-135.367 -85.2042 -70.7936 -171.304 24.3682 -225.682C220.356 -336.704 432.204 -255.136 633.855 -205.291C707.492 -186.032 779.996 -193.961 852.18 -199.494C898.721 -200.466 926.094 -200.466 926.094 -200.466V-186.773Z" fill="white" fill-opacity="0.3"/>
<path d="M926.095 -148.777C926.095 -148.777 898.722 -148.777 852.294 -147.276C772.066 -135.054 691.632 -145.25 614.596 -173.573C414.077 -248.341 179.571 -324.245 -14.1504 -176.97C-134.235 -84.0756 -180.682 77.9252 -120.64 213.872C-79.8558 309.034 1.71081 380.405 104.803 407.593C192.034 431.383 257.741 370.209 327.98 335.091C276.999 433.649 160.313 482.364 50.424 455.174C-181.816 396.265 -304.166 192.347 -371.007 -19.5012C-382.335 -53.4884 -403.86 -81.8096 -426.517 -112.398C-429.915 -116.929 -426.517 -123.726 -426.517 -130.523C-408.391 -111.263 -390.265 -89.7388 -381.202 -64.8174C-307.565 132.303 -222.6 347.549 -8.48586 429.117C85.5421 464.235 211.291 473.298 273.599 382.67C211.291 406.46 143.318 432.517 77.6115 405.327C-18.6826 365.676 -101.383 292.039 -135.369 191.213C-171.622 81.325 -145.565 -39.8919 -69.6633 -128.258C114.996 -344.638 407.278 -257.407 634.985 -176.97C705.224 -152.049 779.994 -152.049 852.155 -161.396C898.719 -162.471 926.092 -162.471 926.092 -162.471V-148.777H926.095Z" fill="white" fill-opacity="0.3"/>
<path d="M926.093 -110.782C926.093 -110.782 898.732 -110.741 852.484 -108.081C778.863 -99.9337 707.491 -114.663 638.385 -140.718C472.986 -204.158 298.523 -283.46 117.263 -229.08C20.9688 -199.626 -60.5992 -135.052 -104.782 -45.556C-189.748 123.243 -96.8524 329.426 76.4789 390.601C202.228 434.785 346.104 331.692 364.229 204.811C382.355 212.739 384.621 237.665 384.621 254.658C384.621 287.511 369.895 319.23 349.503 346.42C296.257 414.391 228.284 469.904 142.187 474.435C31.1641 481.232 -69.6621 431.385 -160.29 362.28C-283.775 268.252 -327.956 130.04 -394.796 -1.37076C-404.991 -20.6304 -417.454 -38.7577 -427.65 -58.0173C-431.048 -63.6805 -428.782 -70.4773 -428.782 -77.2742C-368.74 3.16004 -343.817 100.588 -295.102 190.084C-201.073 361.149 -17.5477 505.022 186.369 460.841C240.747 449.511 282.664 416.658 317.783 374.743C347.239 341.889 390.287 292.044 368.762 247.858C323.449 328.295 243.015 399.664 151.251 401.93C-20.9462 406.464 -160.289 226.337 -137.632 54.1379C-129.702 -4.77057 -108.176 -58.0173 -70.7917 -105.598C95.7385 -323.111 381.222 -258.536 595.335 -165.639C675.77 -130.521 764.134 -108.995 852.542 -122.082C898.722 -124.464 926.092 -124.472 926.092 -124.472V-110.782H926.093Z" fill="white" fill-opacity="0.3"/>
<path d="M926.094 -72.7825C926.094 -72.7825 898.787 -72.5184 851.489 -69.955C798.12 -67.0792 744.876 -76.1422 695.029 -96.5328C484.315 -184.898 243.012 -317.444 18.7032 -170.17C-84.3877 -102.199 -138.768 9.95662 -125.173 128.909C-109.312 267.118 8.50653 394.001 147.851 394.001C221.488 394.001 286.061 344.154 330.243 279.579C365.362 227.468 331.376 174.221 299.656 131.173C296.258 126.643 291.726 117.577 296.258 118.711C354.034 128.907 397.084 185.551 398.216 241.06C399.349 353.215 299.656 443.846 198.83 473.3C1.70966 529.946 -192.014 395.132 -298.503 227.466C-347.216 151.564 -375.539 77.9267 -425.386 2.02322C-431.05 -5.90739 -425.386 -14.9703 -428.784 -22.8982C-381.203 51.8702 -347.218 132.304 -301.901 211.606C-207.872 373.606 -36.8096 491.427 147.851 480.098C255.474 474.432 349.503 388.333 389.152 286.375C399.349 260.318 397.083 230.866 384.621 204.809C373.294 179.885 351.768 145.898 321.181 145.898C347.237 190.082 363.096 244.46 327.977 290.907C262.271 377.006 154.648 425.719 53.8213 377.006C-93.4521 305.634 -173.886 126.641 -105.913 -26.298C-49.2696 -153.179 79.8778 -232.481 214.69 -238.147C377.824 -246.075 525.099 -170.173 673.506 -112.398C731.282 -90.8738 791.325 -78.411 851.999 -83.6041C898.76 -86.3237 926.095 -86.4771 926.095 -86.4771L926.094 -72.7825Z" fill="white" fill-opacity="0.3"/>
<path d="M926.092 -34.7886C926.092 -34.7886 898.88 -34.0185 849.714 -33.041C815.113 -34.2287 779.994 -39.8918 747.14 -52.3546C578.343 -118.06 418.607 -221.154 232.815 -224.551C53.8209 -226.817 -121.775 -84.0756 -117.243 101.717C-114.977 242.194 -3.95524 378.141 138.787 388.335C210.159 394 273.601 344.154 316.649 288.642C343.838 254.658 342.706 211.608 316.649 176.49C287.194 135.706 230.552 114.181 226.02 72.2621C224.887 59.8021 267.935 69.996 288.327 83.5925C338.174 114.18 390.285 149.298 403.88 209.342C433.335 338.488 313.25 446.112 201.096 484.63C87.8066 523.145 -27.7457 476.699 -127.438 414.39C-181.816 381.536 -225.998 344.152 -266.782 296.571C-330.223 220.669 -372.139 137.969 -423.119 53.0039C-426.517 47.338 -424.251 40.5411 -425.385 33.7442C-377.804 108.513 -342.686 184.416 -288.305 259.187C-189.747 395.13 -44.7379 486.895 117.264 492.558C256.607 498.224 407.28 372.473 405.014 228.6C405.014 200.279 389.153 176.488 369.896 157.229C337.041 122.108 292.859 69.9946 245.279 84.7235C243.013 84.7235 248.678 93.7864 252.076 98.3172C289.461 141.367 348.37 179.885 335.909 241.06C314.381 349.815 186.367 418.921 83.2745 381.536C-18.6841 344.152 -96.8523 254.655 -116.112 143.632C-142.168 -11.5706 -42.4745 -156.579 101.4 -205.294C304.185 -274.398 502.439 -167.907 683.698 -85.208C736.944 -61.4175 793.586 -45.5577 851.046 -45.4609C898.855 -47.9261 926.091 -48.4833 926.091 -48.4833V-34.7886H926.092Z" fill="white" fill-opacity="0.3"/>
<path d="M926.108 3.26923C858.165 8.82453 791.326 -1.36942 731.284 -34.2256C500.178 -157.71 182.972 -333.304 -33.4069 -96.5311C-113.843 -9.3 -136.498 119.846 -78.7217 226.338C-31.1408 314.7 60.6211 400.8 169.378 381.541C246.414 367.947 334.777 304.506 325.714 224.069C318.917 158.364 250.944 113.048 182.972 100.589C175.042 98.3204 168.246 97.1894 162.58 91.5235C155.783 81.3296 162.58 67.733 170.51 64.336C274.735 15.6214 391.42 114.183 414.078 213.875C442.399 340.755 326.847 443.849 219.223 490.296C136.523 526.549 44.7599 505.024 -36.8081 473.303C-212.403 406.465 -343.818 253.526 -419.72 88.1264C-304.166 304.506 -105.912 524.283 160.312 499.359C288.327 488.032 412.944 369.079 415.209 237.667C417.475 160.63 349.503 108.518 286.061 69.9991C260.005 54.1393 228.285 48.4775 197.698 57.5391C187.501 60.9362 171.641 74.5327 179.572 79.0635C243.014 122.111 334.776 158.363 329.111 242.197C326.845 294.308 278.132 329.428 233.95 358.884C178.439 395.135 114.997 394.002 58.3536 365.681C-49.2695 312.434 -121.773 198.013 -111.576 75.6636C-103.647 -12.7012 -60.5972 -92.0017 13.0388 -145.247C252.077 -318.577 514.903 -147.513 735.815 -39.8887C794.723 -10.4351 860.431 -5.90434 926.101 -10.4628L926.108 3.26923Z" fill="white" fill-opacity="0.3"/>
<path d="M926.079 41.4574C786.792 49.6078 676.902 -46.6862 557.95 -107.864C407.278 -186.032 229.416 -242.676 67.4155 -165.638C-48.1382 -111.261 -117.243 13.3546 -99.1175 140.237C-83.2563 254.659 0.574985 355.484 118.395 377.008C209.024 392.868 296.257 331.693 322.312 248.993C330.241 220.672 313.248 195.746 295.123 173.091C257.738 127.776 203.36 120.979 148.982 128.91C138.785 130.041 129.722 117.579 129.722 108.516C129.722 76.7981 158.044 51.8725 187.499 42.811C240.744 26.9511 290.59 50.7416 333.64 83.5949C385.751 125.51 436.731 179.888 428.801 250.125C415.206 374.743 313.248 476.702 194.297 507.289C34.5607 549.204 -119.511 465.374 -238.463 360.016C-309.833 297.707 -375.541 222.938 -411.792 139.105C-291.708 341.891 -86.6575 537.878 165.974 508.424C305.318 491.431 454.858 353.219 417.472 199.149C402.746 137.974 351.767 100.59 299.654 64.3367C246.409 28.0835 168.24 30.3496 138.784 90.3932C134.253 100.59 142.184 116.45 152.379 116.45C210.155 115.316 266.799 130.043 304.185 179.89C320.046 200.284 329.107 224.071 323.444 250.128C307.583 309.039 257.738 346.423 205.625 369.08C161.442 389.473 108.197 387.207 64.0143 363.417C-32.277 313.567 -100.25 220.672 -104.781 114.181C-109.311 -12.7033 -30.0109 -135.052 90.0736 -179.234C318.915 -263.066 535.293 -124.854 733.546 -17.2327C767.532 2.02697 802.651 16.7544 842.302 23.5513C870.623 29.2172 897.812 28.0821 926.102 27.7046L926.079 41.4574Z" fill="white" fill-opacity="0.3"/>
<path d="M925.953 79.4997C854.767 81.3302 791.324 54.14 732.416 12.225C508.107 -145.245 178.439 -320.841 -32.2749 -71.6091C-103.646 13.356 -118.375 133.443 -63.996 232.002C-26.6104 297.707 28.8997 348.69 100.272 371.345C164.845 390.605 230.554 362.282 277.001 315.836C304.19 288.646 331.378 248.996 312.119 210.478C284.93 153.834 219.225 128.913 159.181 159.5C147.853 165.163 134.258 154.969 127.461 144.772C112.734 123.248 110.468 94.9254 125.195 74.5347C156.915 30.3509 212.426 20.1542 261.139 36.0168C357.434 68.8702 460.526 157.235 434.469 270.521C402.75 415.529 266.803 533.347 118.397 525.416C-99.1154 515.223 -297.369 369.08 -403.859 185.556C-271.313 379.277 -48.1362 571.866 203.363 508.426C330.245 476.705 441.266 357.751 433.337 221.805C427.672 143.637 360.833 92.6593 297.393 54.14C247.546 24.6864 184.105 21.2866 142.189 60.9369C124.063 79.0642 116.132 108.518 125.195 134.574C129.726 143.637 141.055 149.302 150.118 149.302C180.705 149.302 210.16 127.777 240.747 142.505C279.265 161.764 325.714 194.616 317.783 241.064C300.791 341.891 179.573 406.466 83.2788 366.813C-50.4009 312.435 -130.834 159.498 -84.3866 17.8868C-48.1348 -96.5318 52.6915 -174.7 170.51 -191.694C301.923 -209.821 424.274 -165.637 539.826 -108.995C667.841 -45.5539 777.731 66.6014 926.006 65.8202L925.953 79.4997Z" fill="white" fill-opacity="0.3"/>
<path d="M925.779 117.336C844.569 110.783 776.598 68.8665 710.89 19.021C508.106 -136.186 214.69 -287.991 -2.82045 -93.1357C-104.779 -2.50477 -121.773 154.965 -35.6738 265.987C-0.555738 311.302 42.4943 345.286 95.7397 364.546C135.39 379.273 178.44 373.609 215.824 354.352C263.405 328.295 314.384 288.644 310.986 232C308.72 192.349 265.671 156.098 223.755 164.028C190.9 170.825 153.516 200.281 125.195 166.294C98.0058 133.441 98.0058 85.8601 129.725 57.5388C159.18 29.2176 201.097 16.7549 241.879 25.8178C346.105 49.6083 455.993 134.573 445.798 247.861C433.336 390.602 306.454 517.486 164.844 531.079C-59.4643 552.603 -274.712 408.729 -394.796 228.603C-263.381 399.665 -65.1302 546.938 158.047 528.814C309.852 516.351 465.056 367.945 437.867 203.678C424.274 118.713 344.972 64.3357 269.07 34.8794C229.418 19.0196 181.837 21.2857 145.585 48.4759C124.061 63.2006 107.067 83.594 107.067 108.517C104.801 142.504 131.99 185.554 170.509 174.222C197.698 166.294 224.887 147.035 253.208 160.628C282.663 175.356 313.251 196.882 314.383 230.869C315.515 288.644 264.536 329.428 215.823 355.484C116.132 409.862 11.9056 338.49 -45.8705 253.525C-133.102 125.51 -96.8498 -45.5535 32.2976 -127.12C286.062 -287.991 544.357 -106.729 760.737 43.941C811.716 80.1942 866.094 101.719 925.841 103.719L925.779 117.336Z" fill="white" fill-opacity="0.3"/>
<path d="M925.608 154.918C878.557 145.903 832.108 131.178 794.723 99.4572C573.813 -80.6695 246.412 -311.778 -7.35253 -76.1387C-105.913 15.6232 -109.311 173.095 -19.8153 277.318C25.4995 330.565 86.6741 375.877 160.311 366.814C196.565 362.283 229.417 346.423 256.606 320.367C282.662 294.31 318.914 259.192 300.788 219.539C289.459 194.618 260.004 171.958 233.947 184.421C188.633 204.814 128.59 212.742 104.8 161.764C94.6047 139.105 90.0725 113.05 99.1355 90.3929C114.995 54.1397 150.115 25.8185 190.897 20.1526C233.947 14.4894 275.864 22.4187 313.248 46.2091C391.416 94.9237 477.516 161.764 455.991 264.855C427.672 397.402 330.244 506.161 198.831 533.348C-32.2753 582.063 -256.586 439.32 -386.866 264.856C-227.131 452.915 62.885 650.036 306.454 477.837C399.351 412.131 480.917 307.907 446.93 191.219C429.937 131.178 380.09 93.7914 330.244 57.5409C258.873 5.42927 152.384 -1.36759 105.935 82.4637C95.7398 102.857 94.6075 127.778 103.669 150.438C126.327 209.346 187.502 192.353 237.349 177.625C271.336 166.298 312.118 203.682 307.588 239.935C298.525 315.837 215.824 369.081 142.188 367.95C45.8942 366.817 -32.2739 287.516 -66.2624 200.285C-105.913 100.592 -80.9885 -17.2288 -0.555642 -87.4664C244.147 -301.582 555.687 -97.6631 769.8 73.4007C816.248 110.785 868.36 133.444 925.674 141.415L925.608 154.918Z" fill="white" fill-opacity="0.3"/>
<path d="M925.408 191.992C808.319 164.028 730.149 71.1328 636.121 -3.63829C451.462 -150.91 162.578 -256.269 -15.2836 -54.6176C-76.4582 13.3539 -93.4518 110.782 -60.597 196.88C-30.0097 275.049 32.2973 339.623 116.131 358.883C196.566 377.007 290.594 320.365 295.126 238.797C296.258 213.875 270.203 196.882 245.279 201.413C216.956 207.079 194.3 221.803 164.843 217.272C117.264 210.476 86.675 166.295 87.8073 123.244C91.2071 26.9518 206.759 -9.30144 287.194 25.8167C358.565 57.5377 426.538 108.516 452.594 182.153C508.105 340.755 356.3 494.826 212.424 541.276C95.738 578.66 -26.6126 540.142 -134.234 485.764C-227.13 440.449 -322.293 380.408 -381.202 297.707C-224.865 457.443 14.1713 611.513 240.747 524.283C369.895 475.569 500.177 330.563 451.462 184.42C428.804 115.315 366.496 72.2652 304.187 36.0147C257.739 9.95822 201.096 4.29372 153.514 29.2179C119.528 46.2087 90.072 80.1958 90.072 119.846C88.9397 162.896 119.528 208.211 165.974 212.742C192.031 215.008 214.687 201.414 239.612 194.617C272.466 186.687 306.452 216.142 299.655 248.995C289.458 299.973 244.145 333.96 198.829 354.353C146.717 377.01 92.3395 361.15 44.7573 330.563C-35.677 278.451 -80.9918 193.483 -78.7257 101.72C-75.3272 -19.4981 11.9039 -123.723 131.988 -154.31C307.584 -198.491 467.319 -125.989 613.46 -25.1613C721.083 49.6071 799.251 151.566 925.475 178.679L925.408 191.992Z" fill="white" fill-opacity="0.3"/>
<path d="M925.265 228.809C877.421 215.002 833.239 194.612 799.252 158.359C601.001 -48.9557 273.599 -294.792 7.37349 -65.9493C-69.6623 -0.243897 -91.1867 113.044 -49.2703 208.205C-22.0815 270.514 27.7655 321.493 90.0724 347.548C165.975 380.404 260.004 336.221 286.06 260.317C292.857 241.057 274.733 217.267 254.341 222.933C180.703 248.989 88.9401 220.667 81.0109 135.702C77.6124 93.7841 100.271 48.4707 137.655 29.2125C269.07 -38.7618 419.74 69.9936 460.524 191.212C514.902 349.814 359.698 503.887 213.557 551.465C131.99 578.656 45.8914 562.796 -35.6752 536.741C-163.692 495.957 -295.105 425.716 -377.804 326.024C-222.6 469.9 -14.1522 601.312 206.76 546.935C360.832 509.55 519.433 341.885 454.86 181.018C416.342 84.7225 314.382 5.42202 203.361 9.95281C137.655 12.2189 79.8771 66.5966 83.2769 132.302C88.9415 219.533 184.103 242.191 257.741 216.136C273.602 210.47 290.594 227.464 290.594 245.59C289.462 288.64 253.21 318.095 218.092 339.62C182.972 361.145 141.055 367.942 102.538 354.348C49.2926 336.221 7.37626 299.967 -26.6095 253.52C-100.247 152.695 -84.3857 19.0157 -0.552972 -65.9507C112.735 -181.506 288.329 -175.84 429.939 -118.062C577.214 -56.8877 685.97 51.8677 806.054 156.092C841.172 185.549 881.956 202.542 925.306 215.544L925.265 228.809Z" fill="white" fill-opacity="0.3"/>
<path d="M925.268 265.712C886.484 251.257 847.966 235.397 818.511 204.81C641.783 24.683 443.53 -188.3 165.976 -139.585C65.1496 -121.461 -18.683 -54.6203 -51.5351 42.8075C-94.5851 170.823 -13.0185 318.096 118.396 347.55C180.703 362.277 255.474 330.559 271.334 264.851C275.865 250.123 257.739 242.194 246.411 244.46C161.445 263.72 70.8155 211.607 74.214 122.108C76.48 58.6673 133.124 9.95549 195.432 4.28958C316.649 -4.77337 432.203 82.4577 467.321 191.213C523.966 364.543 354.033 536.742 184.102 569.595C108.2 583.189 36.827 571.862 -34.5429 549.202C-159.16 509.552 -293.973 446.111 -376.672 352.084C-219.203 482.366 -23.2152 601.315 192.031 562.799C337.04 536.742 449.195 418.921 476.384 273.914C485.447 229.732 477.516 187.816 450.327 150.433C389.151 66.5993 300.788 -3.64101 194.297 6.55568C128.59 13.3525 71.9465 69.9964 77.611 136.835C85.5402 228.6 179.57 253.523 260.004 237.663C267.933 236.529 276.997 244.46 276.997 253.523C276.997 309.034 218.089 340.754 170.508 352.084C120.661 363.412 73.0802 341.888 34.5623 310.167C-43.6058 246.726 -84.3884 147.034 -56.0672 48.4748C-10.7538 -107.866 158.045 -172.437 309.851 -144.116C523.965 -105.601 664.441 43.9398 811.715 187.816C843.434 219.536 883.086 237.663 925.251 252.385L925.268 265.712Z" fill="white" fill-opacity="0.3"/>
<path d="M925.394 302.971C864.962 281.849 815.115 245.596 774.331 195.749C648.584 39.4124 505.841 -96.5306 300.79 -135.05C129.725 -166.771 -65.1293 -52.3509 -53.8003 128.911C-49.2695 208.21 -2.82098 277.317 66.2842 323.764C93.4731 341.891 122.928 346.423 153.515 345.288C189.767 343.022 222.621 326.029 245.279 295.441C250.943 286.378 252.075 270.52 241.879 270.52C148.985 268.254 51.5568 209.345 68.5503 105.121C74.2148 69.9997 96.8715 43.9432 126.326 25.8186C190.9 -13.8316 267.935 -8.16847 331.377 32.6155C400.483 76.7993 468.455 126.646 482.049 209.345C511.505 394.004 343.839 559.403 168.244 582.063C94.6068 591.126 23.2355 578.663 -48.1358 557.139C-169.353 519.753 -275.843 463.109 -378.936 383.807C-380.068 383.807 -378.936 379.277 -378.936 375.877C-221.467 493.698 -34.5406 599.054 170.509 576.397C344.973 557.137 526.232 378.144 472.986 195.749C441.267 86.9932 329.113 4.29429 214.691 0.897238C151.251 -1.36885 87.8086 37.1477 74.2148 102.856C50.4244 209.347 153.515 270.521 247.545 260.324C253.209 259.194 258.872 267.121 257.74 272.787C256.608 298.844 232.817 318.102 211.292 330.565C176.173 349.822 134.256 355.486 99.1376 341.893C-28.8775 290.912 -102.515 131.178 -30.0098 4.29429C35.6955 -107.861 164.844 -155.442 289.46 -138.448C504.709 -108.993 654.248 42.8122 790.192 201.415C827.578 243.33 874.025 270.52 925.338 289.488L925.394 302.971Z" fill="white" fill-opacity="0.3"/>
<path d="M925.619 340.833C855.898 320.367 802.652 271.652 760.736 209.345C610.064 -13.8319 343.837 -223.414 81.01 -87.4679C20.9677 -56.8806 -19.8163 -1.36914 -37.9422 62.0715C-70.7956 175.359 1.70944 295.442 110.465 332.829C145.584 345.289 184.102 336.226 211.291 311.305C219.222 303.374 219.222 289.781 207.893 287.514C124.06 267.121 49.2903 201.416 62.8841 109.652C70.8147 55.2747 110.465 16.7568 161.444 2.0279C313.25 -38.7561 480.915 93.7898 491.11 239.932C502.439 420.059 329.11 583.192 151.249 593.389C61.7517 599.052 -26.6131 583.192 -110.444 549.205C-204.474 510.69 -315.497 466.506 -382.334 399.666C-196.543 520.884 37.9613 651.164 262.272 562.802C365.363 520.884 443.532 431.387 480.918 326.028C504.708 259.191 495.644 185.555 448.065 130.042C384.622 53.0072 300.79 -14.967 196.566 -3.63938C131.992 3.16025 66.2853 49.6074 62.8854 119.845C58.3533 213.877 150.117 256.926 223.754 290.91C241.878 299.973 197.697 328.297 177.305 336.225C156.913 344.156 134.255 341.891 112.731 335.094C9.64005 306.773 -57.1991 200.282 -47.0038 96.0545C-33.4086 -55.751 126.326 -146.379 271.335 -132.785C502.441 -111.261 656.512 62.0702 793.589 237.666C828.709 281.847 874.023 307.904 925.531 327.108L925.619 340.833Z" fill="white" fill-opacity="0.3"/>
<path d="M925.853 379.333C792.46 340.758 741.481 203.68 656.514 101.721C526.234 -55.7501 316.651 -175.833 117.266 -96.5313C6.24324 -52.3503 -68.5265 79.0646 -20.9457 193.483C-0.553668 242.198 33.4321 282.982 79.8806 309.038C99.1403 320.366 120.665 326.029 143.323 322.632C153.518 321.498 175.042 313.569 167.113 306.772C102.539 246.729 22.1045 171.958 62.8871 79.0646C92.3434 9.95943 170.512 -22.894 244.149 -10.434C355.171 6.55958 451.465 86.9938 486.584 188.952C550.026 378.145 369.898 574.131 182.973 602.453C86.6789 616.046 -5.08443 597.922 -95.714 568.466C-199.939 535.612 -292.834 488.031 -389.128 430.257C-389.128 430.257 -387.996 425.723 -386.862 423.457C-195.407 533.347 34.5672 660.23 257.744 575.262C409.548 516.353 552.291 337.36 478.653 173.093C443.534 92.6584 369.898 31.4838 286.064 0.89645C203.365 -29.6936 95.7418 -0.237277 64.0194 85.8615C31.166 174.224 100.273 256.927 178.441 293.176C182.972 295.442 188.636 299.973 187.504 305.639C178.441 336.226 137.657 332.829 111.602 326.029C56.0916 311.304 15.3076 268.254 -13.015 219.54C-54.93 145.902 -43.6023 56.4065 8.50931 -13.831C67.4192 -93.1329 160.315 -128.252 254.344 -123.72C416.345 -114.657 557.955 -22.8926 662.18 100.59C744.879 198.015 798.124 327.164 925.774 365.404L925.853 379.333Z" fill="white" fill-opacity="0.3"/>
<path d="M926.032 418.132C862.695 404.199 815.114 364.546 777.73 310.168C693.896 190.085 642.917 71.1312 519.434 -13.8338C394.817 -101.065 243.013 -149.78 105.935 -80.6743C15.3055 -34.2272 -47.0029 72.2622 -13.0171 173.09C0.577988 213.874 18.7039 250.124 56.0881 275.048C68.5508 284.111 81.0108 292.042 95.7397 294.308C101.404 295.439 109.333 292.042 107.067 286.377C86.6753 238.797 48.1588 200.28 42.4943 147.035C36.8284 76.7971 84.4093 13.3536 150.117 -8.17072C210.16 -27.4276 275.866 -20.6307 331.378 11.089C424.274 65.4667 510.372 150.434 509.24 261.456C505.841 384.94 428.806 489.164 324.581 560.535C265.671 600.185 202.23 616.044 135.39 618.31C49.2926 620.576 -35.6739 602.45 -118.374 576.395C-214.668 544.674 -303.033 501.624 -394.796 455.176C-394.796 455.176 -393.664 450.646 -392.53 447.246C-189.745 550.338 51.5573 677.22 278.133 578.661C435.603 510.689 584.008 307.903 466.19 136.838C392.553 30.3472 269.071 -53.4855 142.188 -1.37109C96.8734 17.8858 59.4879 55.2728 48.1588 103.985C30.0329 184.419 95.7397 237.666 129.725 301.105C133.124 309.035 114.998 310.168 105.935 307.902C81.0122 302.239 60.6202 288.642 41.362 271.649C2.84406 236.53 -19.814 190.083 -25.4785 141.367C-41.3397 2.02599 86.6754 -108.996 219.223 -114.66C385.754 -121.457 538.692 -28.5613 645.183 100.589C734.681 210.475 781.129 364.547 925.977 404.129L926.032 418.132Z" fill="white" fill-opacity="0.3"/>
<path d="M926.122 457.128C846.835 446.112 785.66 388.335 753.941 318.097C646.316 82.459 412.944 -176.968 130.857 -79.5432C42.4938 -48.9532 -18.6822 41.675 -7.35314 135.706C-3.95471 164.027 7.37294 188.95 25.5002 212.74C28.8987 216.14 40.2277 221.803 37.9616 215.006C14.1712 124.378 44.7599 22.4167 137.654 -12.7014C273.6 -62.5483 399.349 26.9517 477.517 136.838C523.966 201.413 526.23 281.847 500.175 354.352C451.462 491.428 335.908 604.715 186.369 626.24C109.333 636.437 37.9616 628.506 -39.0742 612.647C-170.488 584.325 -281.509 531.079 -400.461 481.232C-400.461 481.232 -399.329 476.701 -398.195 473.301C-215.803 550.338 -28.8775 645.5 178.438 621.71C340.439 603.582 470.719 472.17 508.104 314.699C525.098 244.461 508.104 175.356 462.79 118.712C382.355 19.0183 258.872 -59.1499 131.991 -8.17197C30.0324 32.612 11.9051 156.096 66.2856 245.592C70.8164 253.523 60.6197 255.789 54.9566 252.392C15.3063 226.335 -6.21804 183.287 -11.8839 137.97C-23.2116 54.1364 22.1032 -22.898 93.4745 -65.9467C228.286 -146.381 380.092 -99.9338 504.709 -16.0998C636.122 72.2623 689.368 202.546 770.934 329.426C807.187 387.204 858.167 432.519 926.1 443.061L926.122 457.128Z" fill="white" fill-opacity="0.3"/>
<path d="M926.151 496.114C765.27 478.967 723.353 303.371 655.381 179.887C570.415 24.6839 412.946 -92.0035 236.216 -90.8711C147.853 -89.7374 44.7607 -39.8905 25.5024 54.1375C86.677 -19.4998 186.371 -58.0177 280.399 -26.2967C398.219 13.3536 509.24 111.915 521.702 239.93C535.295 380.408 451.463 507.288 332.511 583.19C171.642 685.149 -15.283 642.1 -180.682 587.721C-256.584 562.8 -329.089 536.743 -404.991 510.686C-406.124 510.686 -404.991 503.89 -403.859 500.49C-340.418 523.147 -276.976 546.937 -213.537 569.595C-45.8703 630.77 145.586 684.016 312.117 589.986C444.663 515.217 551.155 367.943 512.636 212.737C478.653 72.2621 339.309 -37.6258 194.302 -31.9626C105.937 -28.5628 34.5654 39.4087 10.7749 123.243C-11.8831 58.6683 35.6977 -11.5692 91.2106 -50.0872C229.421 -142.983 392.554 -86.3403 514.905 5.42433C634.989 96.0525 683.704 225.201 750.544 349.817C787.929 417.791 847.971 473.301 926.149 482.076L926.151 496.114Z" fill="white" fill-opacity="0.3"/>
<path d="M926.132 534.773C830.978 535.612 760.739 464.24 724.487 381.542C679.172 278.451 648.585 170.826 569.283 85.8611C479.786 -11.5667 348.372 -95.4008 213.56 -64.8135C329.114 -37.6232 427.674 25.8174 493.381 131.176C597.607 299.972 489.982 503.892 335.911 596.786C128.595 721.404 -105.911 629.64 -316.626 566.199C-347.214 557.136 -377.801 549.206 -409.521 543.542C-407.254 540.143 -408.388 535.612 -408.388 532.215C-377.801 539.012 -347.214 546.939 -316.626 557.136C-130.834 617.18 64.0206 690.817 256.61 628.507C428.808 571.864 570.417 382.674 517.171 199.147C469.589 34.8804 296.26 -73.8751 127.461 -44.4201C177.308 -87.4702 252.078 -85.2041 316.651 -73.8764C374.429 -63.6797 422.009 -38.7583 471.856 -8.17103C619.128 82.4599 670.109 239.93 738.082 386.071C773.2 459.708 841.173 517.486 926.145 520.9L926.132 534.773Z" fill="white" fill-opacity="0.3"/>
<path d="M926.11 573.044C823.045 580.924 735.814 508.421 702.962 412.125C651.982 259.188 597.605 68.8646 431.072 12.2208C431.072 14.4869 429.939 16.7516 431.072 19.0177C478.653 89.2552 534.164 150.433 540.961 235.398C553.424 387.203 470.722 534.477 339.308 611.511C116.133 741.792 -121.771 634.17 -357.41 586.59C-376.669 582.059 -393.663 582.059 -411.787 576.393C-412.92 576.393 -411.787 566.196 -410.655 566.196C-380.068 567.33 -349.48 575.259 -318.893 583.19C-95.7176 640.967 145.587 739.526 359.699 592.253C472.987 514.085 538.693 392.866 538.693 261.454C539.826 139.102 444.664 53.0048 365.364 -28.5632C560.219 9.95472 648.584 215.004 706.36 387.203C738.08 483.497 818.514 566.196 926.118 559.272L926.11 573.044Z" fill="white" fill-opacity="0.3"/>
</g>
</svg>
