<svg width="485" height="485" viewBox="0 0 485 485" fill="none" xmlns="http://www.w3.org/2000/svg">
<mask id="mask0_357_87" style="mask-type:luminance" maskUnits="userSpaceOnUse" x="0" y="0" width="485" height="485">
<path d="M242.362 484.193C375.921 484.193 484.193 375.922 484.193 242.362C484.193 108.803 375.921 0.531738 242.362 0.531738C108.803 0.531738 0.531494 108.803 0.531494 242.362C0.531494 375.922 108.803 484.193 242.362 484.193Z" fill="white"/>
</mask>
<g mask="url(#mask0_357_87)">
<path d="M877.653 -248.621C877.653 -248.621 851.722 -248.621 807.269 -248.621C716.708 -245.687 629.776 -233.88 536.404 -252.126C404.397 -277.882 283.121 -309.006 148.966 -287.542C-27.0451 -259.636 -156.907 -126.558 -200.909 44.0866C-201.983 51.5997 -207.349 61.2596 -213.788 60.1855C-227.741 58.0387 -232.034 39.7943 -238.473 26.9162C-281.402 -67.5282 -269.597 -212.415 -396.239 -243.54C-397.312 -244.612 -394.093 -252.126 -395.167 -256.418C-280.33 -245.687 -268.523 -116.896 -235.254 -29.9652C-230.961 -19.2313 -219.155 -0.985549 -206.277 -11.7195C-195.544 -20.3054 -190.178 -32.1107 -184.811 -43.9148C-94.6592 -230.661 109.256 -329.397 312.098 -298.275C480.597 -272.518 639.436 -240.321 807.269 -261.592C851.722 -261.592 877.653 -261.592 877.653 -261.592V-248.621Z" fill="#DDDDDD"/>
<path d="M877.656 -212.624C877.656 -212.624 851.724 -212.624 807.285 -212.586C660.902 -188.804 524.602 -227.442 378.642 -261.783C212.29 -299.348 30.9118 -274.663 -83.9251 -137.289C-182.663 -21.3776 -188.028 136.386 -130.074 268.397C-194.467 243.712 -225.592 166.438 -251.35 105.263C-282.474 33.357 -295.352 -41.7689 -322.183 -114.751C-336.134 -151.241 -360.819 -180.218 -396.237 -199.535C-400.529 -201.682 -398.383 -209.195 -397.309 -214.56C-356.526 -200.61 -327.548 -168.412 -312.524 -128.703C-271.74 -19.2308 -268.52 107.41 -182.662 194.344C-178.369 198.636 -175.149 186.831 -176.221 181.463C-195.54 29.0634 -144.025 -124.41 -8.79658 -213.487C190.825 -345.494 404.4 -256.416 614.755 -221C680.222 -210.266 742.47 -225.293 807.273 -225.593C851.726 -225.595 877.656 -225.595 877.656 -225.595V-212.624Z" fill="#DDDDDD"/>
<path d="M877.657 -176.627C877.657 -176.627 851.725 -176.627 807.432 -176.164C723.151 -164.12 638.366 -168.412 555.726 -195.242C364.689 -258.564 138.237 -313.298 -33.481 -167.338C-132.22 -82.5536 -174.075 50.529 -138.659 173.952C-104.315 293.081 -1.28435 371.428 109.258 413.283C-65.6802 414.357 -213.786 271.616 -277.108 113.849C-314.671 22.6246 -323.257 -82.551 -400.531 -154.459C-402.678 -156.605 -401.604 -169.484 -400.531 -168.411C-360.821 -146.947 -338.282 -107.236 -326.478 -63.2339C-278.182 122.438 -194.469 326.353 3.00658 381.086C4.07932 370.355 -5.57925 367.137 -12.0196 362.843C-117.194 280.2 -180.516 157.853 -150.463 22.6246C-127.925 -80.4056 -66.7516 -161.973 23.4004 -213.488C209.071 -318.665 409.766 -241.391 600.802 -194.171C670.563 -175.925 739.25 -183.437 807.634 -188.679C851.725 -189.6 877.657 -189.6 877.657 -189.6V-176.627Z" fill="#DDDDDD"/>
<path d="M877.657 -140.632C877.657 -140.632 851.725 -140.632 807.741 -139.21C731.737 -127.631 655.537 -137.291 582.556 -164.122C392.594 -234.955 170.433 -306.862 -13.0909 -167.341C-126.854 -79.3367 -170.856 74.1359 -113.974 202.926C-75.3373 293.078 1.93537 360.692 99.6006 386.449C182.24 408.987 244.487 351.033 311.029 317.763C262.732 411.133 152.188 457.283 48.0842 431.525C-171.93 375.717 -287.839 182.534 -351.161 -18.1617C-361.893 -50.3596 -382.285 -77.1899 -403.749 -106.168C-406.969 -110.461 -403.749 -116.9 -403.749 -123.339C-386.577 -105.093 -369.406 -84.7017 -360.82 -61.0923C-291.059 125.651 -210.567 329.566 -7.72452 406.84C81.3535 440.109 200.483 448.695 259.511 362.838C200.483 385.376 136.088 410.061 73.8404 384.302C-17.3844 346.739 -95.7311 276.978 -127.928 181.46C-162.272 77.3567 -137.588 -37.4789 -65.6813 -121.193C109.257 -326.182 386.152 -243.543 601.872 -167.341C668.414 -143.731 739.247 -143.731 807.609 -152.587C851.722 -153.605 877.654 -153.605 877.654 -153.605V-140.632H877.657Z" fill="#DDDDDD"/>
<path d="M877.655 -104.637C877.655 -104.637 851.734 -104.599 807.921 -102.079C738.175 -94.3599 670.561 -108.313 605.093 -132.997C448.401 -193.098 283.123 -268.225 111.404 -216.707C20.1796 -188.804 -57.0944 -127.629 -98.9509 -42.8448C-179.444 117.068 -91.4391 312.397 72.7674 370.351C191.897 412.209 328.199 314.544 345.369 194.342C362.541 201.853 364.688 225.466 364.688 241.565C364.688 272.689 350.737 302.737 331.418 328.496C280.976 392.889 216.581 445.48 135.016 449.772C29.8382 456.211 -65.6802 408.988 -151.537 343.521C-268.521 254.443 -310.376 123.507 -373.698 -0.985649C-383.357 -19.2314 -395.163 -36.4044 -404.822 -54.6502C-408.042 -60.0152 -405.895 -66.4542 -405.895 -72.8933C-349.013 3.30664 -325.403 95.6055 -279.252 180.39C-190.173 342.45 -16.3093 478.749 176.873 436.894C228.388 426.16 268.098 395.036 301.369 355.328C329.274 324.204 370.055 276.982 349.664 235.123C306.736 311.326 230.536 378.937 143.604 381.084C-19.5288 385.379 -151.536 214.735 -130.072 51.6009C-122.559 -4.20647 -102.166 -54.6502 -66.7503 -99.7262C91.0132 -305.788 361.468 -244.613 564.309 -156.606C640.51 -123.337 724.222 -102.944 807.976 -115.342C851.725 -117.599 877.654 -117.607 877.654 -117.607V-104.637H877.655Z" fill="#DDDDDD"/>
<path d="M877.656 -68.6376C877.656 -68.6376 851.787 -68.3874 806.978 -65.959C756.419 -63.2346 705.978 -71.8204 658.755 -91.1376C459.134 -174.851 230.534 -300.419 18.0335 -160.898C-79.6304 -96.5052 -131.148 9.74583 -118.269 122.436C-103.242 253.369 8.37362 373.572 140.382 373.572C210.143 373.572 271.317 326.35 313.173 265.175C346.443 215.806 314.246 165.363 284.196 124.581C280.977 120.289 276.683 111.701 280.977 112.775C335.711 122.435 376.495 176.097 377.568 228.683C378.641 334.934 284.196 420.794 188.678 448.697C1.93456 502.361 -181.59 374.644 -282.474 215.805C-328.623 143.899 -355.454 74.1377 -402.677 2.23007C-408.043 -5.28304 -402.677 -13.8689 -405.897 -21.3794C-360.821 49.4529 -328.624 125.653 -285.693 200.78C-196.614 354.251 -34.5569 465.87 140.382 455.137C242.34 449.77 331.419 368.203 368.981 271.612C378.641 246.927 376.494 219.026 364.688 194.341C353.957 170.729 333.564 138.531 304.587 138.531C329.272 180.389 344.296 231.904 311.026 275.906C248.779 357.472 146.821 403.621 51.3029 357.472C-88.2175 289.858 -164.417 120.288 -100.023 -24.6002C-46.361 -144.802 75.9877 -219.929 203.703 -225.297C358.249 -232.807 497.771 -160.901 638.365 -106.168C693.1 -85.7765 749.981 -73.9698 807.461 -78.8895C851.761 -81.4659 877.657 -81.6113 877.657 -81.6113L877.656 -68.6376Z" fill="#DDDDDD"/>
<path d="M877.654 -32.6442C877.654 -32.6442 851.874 -31.9146 805.297 -30.9886C772.517 -32.1137 739.247 -37.4787 708.123 -49.2854C548.211 -111.532 396.884 -209.198 220.874 -212.417C51.3021 -214.563 -115.05 -79.3366 -110.756 96.6753C-108.61 229.757 -3.43257 358.547 131.796 368.204C199.41 373.572 259.512 326.349 300.294 273.76C326.052 241.565 324.979 200.781 300.294 167.512C272.39 128.875 218.729 108.483 214.436 68.771C213.363 56.9669 254.144 66.6242 273.463 79.5049C320.686 108.482 370.054 141.751 382.933 198.634C410.838 320.981 297.073 422.94 190.824 459.431C83.4986 495.918 -25.9706 451.917 -120.415 392.888C-171.93 361.764 -213.787 326.348 -252.424 281.272C-312.525 209.365 -352.234 131.019 -400.53 50.5266C-403.749 45.1589 -401.603 38.7199 -402.677 32.2808C-357.601 103.113 -324.331 175.021 -272.813 245.856C-179.443 374.642 -42.0683 461.576 111.406 466.941C243.413 472.309 386.154 353.178 384.007 216.879C384.007 190.048 368.981 167.51 350.738 149.264C319.613 115.993 277.756 66.6229 232.682 80.5764C230.535 80.5764 235.901 89.1622 239.121 93.4545C274.537 134.238 330.345 170.728 318.54 228.683C298.145 331.713 176.87 397.18 79.2051 361.764C-17.3861 326.348 -91.4392 241.562 -109.685 136.384C-134.37 -10.6485 -39.9241 -148.023 96.3768 -194.173C288.486 -259.639 476.304 -158.755 648.021 -80.4093C698.463 -57.8713 752.124 -42.8464 806.558 -42.7547C851.85 -45.0901 877.653 -45.618 877.653 -45.618V-32.6442H877.654Z" fill="#DDDDDD"/>
<path d="M877.667 3.40994C813.302 8.67279 749.981 -0.984517 693.1 -32.111C474.16 -149.095 173.653 -315.445 -31.3351 -91.1366C-107.536 -8.4976 -128.999 113.85 -74.2644 214.736C-29.1884 298.446 57.7429 380.014 160.774 361.768C233.755 348.89 317.467 288.789 308.881 212.586C302.442 150.34 238.047 107.409 173.653 95.6067C166.141 93.4573 159.702 92.3858 154.334 87.0182C147.895 77.3609 154.334 64.4802 161.847 61.2619C260.585 15.1118 371.127 108.485 392.592 202.929C419.423 323.13 309.953 420.796 207.996 464.798C129.649 499.143 42.7167 478.75 -34.5573 448.699C-200.908 385.38 -325.405 240.492 -397.311 83.8C-287.841 288.789 -100.023 496.996 152.186 473.384C273.462 462.653 391.518 349.963 393.664 225.468C395.811 152.487 331.417 103.118 271.315 66.627C246.63 51.6021 216.58 46.2383 187.603 54.8229C177.943 58.0411 162.919 70.9219 170.432 75.2141C230.534 115.995 317.465 150.339 312.099 229.759C309.952 279.128 263.803 312.398 221.947 340.304C169.359 374.646 109.257 373.573 55.5948 346.743C-46.3627 296.299 -115.049 187.902 -105.39 71.9933C-97.8778 -11.7198 -57.094 -86.8456 12.6655 -137.288C239.12 -301.493 488.109 -139.435 697.392 -37.476C753.199 -9.57296 815.448 -5.2807 877.661 -9.59917L877.667 3.40994Z" fill="#DDDDDD"/>
<path d="M877.64 39.5879C745.685 47.3093 641.581 -43.9155 528.891 -101.872C386.151 -175.925 217.652 -229.587 64.1798 -156.606C-45.2908 -105.091 -110.758 12.9646 -93.5864 133.168C-78.5601 241.566 0.857968 337.083 112.475 357.474C198.334 372.499 280.974 314.545 305.658 236.198C313.169 209.368 297.071 185.754 279.9 164.292C244.483 121.362 192.968 114.923 141.452 122.436C131.793 123.508 123.207 111.702 123.207 103.117C123.207 73.0681 150.037 49.4548 177.941 40.8702C228.384 25.8453 275.605 48.3833 316.389 79.5072C365.757 119.216 414.053 170.731 406.541 237.271C393.662 355.328 297.07 451.92 184.382 480.897C33.0546 520.605 -112.906 441.188 -225.596 341.376C-293.209 282.348 -355.458 211.515 -389.8 132.095C-276.039 324.206 -81.7823 509.875 157.55 481.972C289.559 465.873 431.226 334.937 395.808 188.978C381.858 131.024 333.562 95.6075 284.192 61.2628C233.75 26.9181 159.697 29.0648 131.791 85.9476C127.499 95.6075 135.012 110.632 144.671 110.632C199.405 109.558 253.067 123.511 288.485 170.733C303.511 190.053 312.095 212.589 306.73 237.273C291.704 293.083 244.483 328.499 195.113 349.963C153.257 369.283 102.814 367.137 60.9577 344.599C-30.2645 297.373 -94.6591 209.368 -98.9514 108.483C-103.244 -11.7216 -28.1178 -127.63 85.6451 -169.485C302.439 -248.905 507.427 -117.969 695.243 -16.0125C727.44 2.23324 760.71 16.1854 798.273 22.6245C825.104 27.9921 850.861 26.9167 877.663 26.5591L877.64 39.5879Z" fill="#DDDDDD"/>
<path d="M877.52 75.6274C810.081 77.3616 749.979 51.6027 694.172 11.8943C481.671 -137.286 169.358 -303.638 -30.2631 -67.5264C-97.8772 12.9657 -111.831 126.731 -60.3143 220.102C-24.8968 282.348 27.691 330.646 95.3064 352.109C156.48 370.355 218.729 343.523 262.731 299.522C288.489 273.763 314.246 236.201 296.001 199.71C270.243 146.048 207.997 122.439 151.114 151.416C140.382 156.781 127.503 147.124 121.064 137.464C107.112 117.073 104.965 90.241 118.917 70.9239C148.967 29.066 201.556 19.4061 247.705 34.4336C338.93 65.5575 436.595 149.271 411.91 256.593C381.86 393.967 253.07 505.583 112.477 498.07C-93.5849 488.412 -281.402 349.963 -382.286 176.101C-256.717 359.623 -45.2894 542.074 192.97 481.973C313.172 451.922 418.349 339.231 410.837 210.442C405.471 136.389 342.151 88.0942 282.05 51.6027C234.827 23.6997 174.726 20.4789 135.016 58.0418C117.844 75.2148 110.331 103.118 118.917 127.803C123.209 136.388 133.942 141.755 142.528 141.755C171.505 141.755 199.409 121.364 228.386 135.316C264.877 153.561 308.88 184.684 301.367 228.686C285.269 324.206 170.432 385.381 79.2074 347.815C-47.4349 296.3 -123.633 151.415 -79.6315 17.258C-45.2881 -91.1372 50.2304 -165.19 161.846 -181.289C286.342 -198.462 402.252 -156.604 511.721 -102.944C632.997 -42.8429 737.101 63.4081 877.571 62.6681L877.52 75.6274Z" fill="#DDDDDD"/>
<path d="M877.356 111.472C800.421 105.264 736.028 65.5541 673.779 18.3326C481.67 -128.704 203.701 -272.518 -2.3593 -87.9198C-98.9505 -2.05999 -115.049 147.12 -33.4832 252.297C-0.213813 295.227 40.5699 327.422 91.0123 345.668C128.575 359.62 169.359 354.254 204.775 336.01C249.851 311.326 298.147 273.761 294.927 220.099C292.78 182.536 251.998 148.193 212.288 155.706C181.163 162.145 145.747 190.051 118.917 157.853C93.1591 126.729 93.1591 81.653 123.209 54.8227C151.113 27.9924 190.823 16.1858 229.459 24.7716C328.198 47.3096 432.301 127.802 422.642 235.126C410.837 370.352 290.634 490.557 156.478 503.434C-56.0212 523.825 -259.937 387.525 -373.7 216.881C-249.204 378.938 -61.3888 518.459 150.039 501.288C293.853 489.482 440.887 348.888 415.129 193.269C402.251 112.777 327.124 61.2618 255.218 33.3562C217.653 18.3313 172.577 20.478 138.234 46.2369C117.843 60.1864 101.744 79.5062 101.744 103.117C99.5968 135.315 125.354 176.099 161.846 165.363C187.603 157.853 213.361 139.607 240.191 152.485C268.096 166.437 297.073 186.83 298.146 219.028C299.218 273.761 250.923 312.398 204.774 337.083C110.331 388.598 11.5915 320.984 -43.1431 240.492C-125.782 119.216 -91.4387 -42.8425 30.91 -120.115C271.315 -272.518 516.013 -100.798 721.002 41.9407C769.297 76.2854 820.812 96.6766 877.415 98.5719L877.356 111.472Z" fill="#DDDDDD"/>
<path d="M877.194 147.075C832.619 138.535 788.616 124.586 753.199 94.5347C543.919 -76.1096 233.753 -295.052 -6.65233 -71.8173C-100.024 15.1139 -103.243 164.296 -18.459 263.032C24.4703 313.476 82.4244 356.402 152.185 347.817C186.53 343.524 217.653 328.499 243.41 303.815C268.095 279.13 302.438 245.86 285.267 208.295C274.534 184.685 246.63 163.219 221.945 175.026C179.016 194.345 122.134 201.856 99.5961 153.562C89.9375 132.095 85.644 107.411 94.2298 85.9475C109.255 51.6028 142.525 24.7725 181.161 19.4049C221.945 14.0399 261.655 21.5517 297.071 44.0897C371.124 90.2398 452.691 153.562 432.299 251.225C405.471 376.795 313.172 479.828 188.677 505.584C-30.2631 551.734 -242.765 416.506 -366.187 251.227C-214.861 429.385 59.8877 616.129 290.634 452.995C378.641 390.748 455.913 292.011 423.716 181.466C407.617 124.586 360.394 89.1671 313.172 54.825C245.558 5.45667 144.675 -0.982391 100.671 78.4357C91.0129 97.7555 89.9401 121.365 98.5247 142.832C119.99 198.639 177.944 182.54 225.167 168.588C257.365 157.856 296.001 193.273 291.708 227.617C283.122 299.524 204.776 349.965 135.016 348.893C43.7913 347.819 -30.2618 272.693 -62.461 190.054C-100.024 95.61 -76.4119 -16.0086 -0.21325 -82.5486C231.607 -285.392 526.747 -92.2086 729.588 69.8499C773.591 105.266 822.96 126.733 877.257 134.284L877.194 147.075Z" fill="#DDDDDD"/>
<path d="M877.005 182.198C766.079 155.707 692.025 67.7014 602.947 -3.13353C428.009 -142.653 154.333 -242.465 -14.1658 -51.4291C-72.12 12.9641 -88.2189 105.263 -57.0938 186.829C-28.1167 260.882 30.9103 322.057 110.331 340.303C186.531 357.474 275.609 303.813 279.903 226.539C280.975 202.93 256.292 186.831 232.68 191.123C205.848 196.49 184.384 210.44 156.478 206.148C111.404 199.709 82.4253 157.853 83.4981 117.07C86.7189 25.8462 196.188 -8.49855 272.388 24.7708C340.002 54.8219 404.397 103.116 429.082 172.877C481.669 323.13 337.857 469.09 201.555 513.094C91.0112 548.51 -24.8984 512.02 -126.855 460.505C-214.86 417.576 -305.013 360.696 -360.821 282.348C-212.714 433.675 13.7385 579.634 228.386 496.997C350.736 450.846 474.159 313.474 428.009 175.025C406.544 109.558 347.515 68.7741 288.487 34.432C244.484 9.74721 190.823 4.38091 145.746 27.993C113.549 44.0893 85.6436 76.2872 85.6436 113.85C84.5708 154.634 113.549 197.563 157.55 201.855C182.235 204.002 203.699 191.124 227.311 184.685C258.436 177.172 290.633 205.076 284.193 236.2C274.534 284.494 231.606 316.692 188.675 336.012C139.307 357.476 87.7917 342.451 42.7143 313.474C-33.4856 264.106 -76.4149 183.611 -74.2681 96.6785C-71.0485 -18.1584 11.5904 -116.896 125.353 -145.873C291.705 -187.729 443.031 -119.043 581.479 -23.5235C683.436 47.3088 757.489 143.9 877.068 169.585L877.005 182.198Z" fill="#DDDDDD"/>
<path d="M876.869 217.077C831.544 203.997 789.687 184.68 757.489 150.335C569.675 -46.0655 259.509 -278.96 7.29832 -62.1644C-65.6821 0.0819925 -86.0733 107.406 -46.3636 197.558C-20.606 256.586 26.6168 304.882 85.6437 329.565C157.55 360.692 246.629 318.834 271.314 246.926C277.753 228.68 260.583 206.142 241.264 211.51C171.504 236.195 84.571 209.363 77.0592 128.871C73.8397 89.16 95.3049 46.2321 130.721 27.9877C255.218 -36.4082 397.957 66.622 436.594 181.459C488.109 331.712 341.075 477.674 202.627 522.747C125.355 548.506 43.7885 533.481 -33.4841 508.798C-154.761 470.161 -279.257 403.618 -357.602 309.174C-210.569 445.476 -13.0942 569.97 196.188 518.455C342.149 483.039 492.401 324.2 431.227 171.802C394.737 80.5755 298.144 5.44964 192.969 9.74191C130.721 11.8887 75.9851 63.4038 79.206 125.65C84.5723 208.289 174.724 229.754 244.485 205.071C259.511 199.703 275.609 215.802 275.609 232.974C274.536 273.758 240.193 301.662 206.924 322.055C173.653 342.446 133.942 348.885 97.4531 336.007C47.0107 318.834 7.30095 284.489 -24.8957 240.487C-94.6565 144.97 -79.6303 18.3277 -0.210863 -62.1658C107.113 -171.638 273.464 -166.27 407.619 -111.534C547.141 -53.5799 650.171 49.4503 763.934 148.188C797.203 176.094 835.84 192.193 876.908 204.51L876.869 217.077Z" fill="#DDDDDD"/>
<path d="M876.872 252.037C840.13 238.343 803.64 223.318 775.735 194.341C608.311 23.6965 420.495 -178.074 157.552 -131.924C62.0332 -114.754 -17.3862 -51.432 -48.5088 40.8669C-89.2926 162.143 -12.0199 301.663 112.477 329.566C171.504 343.518 242.339 313.47 257.364 251.221C261.656 237.269 244.484 229.757 233.753 231.904C153.259 250.149 67.4008 200.78 70.6204 115.993C72.7672 55.8918 126.429 9.74435 185.457 4.37672C300.293 -4.20914 409.763 78.4298 443.033 181.46C496.696 345.665 335.709 508.799 174.723 539.923C102.817 552.801 35.2016 542.07 -32.4111 520.603C-150.468 483.04 -278.184 422.939 -356.529 333.863C-207.35 457.285 -21.6798 569.973 182.235 533.484C319.61 508.799 425.861 397.18 451.619 259.807C460.204 217.952 452.691 178.242 426.934 142.827C368.978 63.4062 285.267 -3.13639 184.382 6.52352C122.134 12.9626 68.4723 66.6245 73.8386 129.945C81.3504 216.879 170.43 240.49 246.63 225.465C254.141 224.391 262.729 231.904 262.729 240.49C262.729 293.079 206.921 323.129 161.845 333.863C114.622 344.594 69.5463 324.203 33.0561 294.152C-40.997 234.051 -79.6327 139.606 -52.8024 46.2359C-9.87443 -101.874 150.039 -163.047 293.853 -136.216C496.695 -99.7288 629.776 41.9397 769.296 178.242C799.346 208.292 836.91 225.465 876.856 239.412L876.872 252.037Z" fill="#DDDDDD"/>
<path d="M876.992 287.334C819.741 267.324 772.518 232.98 733.881 185.757C614.753 37.6506 479.525 -91.1359 285.269 -127.627C123.209 -157.679 -61.3875 -49.282 -50.6549 122.438C-46.3626 197.562 -2.35932 263.031 63.108 307.033C88.8655 324.206 116.77 328.499 145.747 327.424C180.09 325.277 211.214 309.178 232.68 280.201C238.046 271.615 239.119 256.592 229.459 256.592C141.455 254.445 49.1558 198.638 65.2548 99.8996C70.6211 66.6277 92.085 41.9428 119.989 24.7724C181.163 -12.7905 254.143 -7.42549 314.246 31.2115C379.713 73.0693 444.108 120.292 456.986 198.638C484.891 373.575 326.051 530.268 159.7 551.734C89.9396 560.32 22.3255 548.513 -45.2886 528.122C-160.124 492.705 -261.009 439.043 -358.674 363.915C-359.747 363.915 -358.674 359.623 -358.674 356.402C-209.495 468.021 -32.4092 567.83 161.846 546.366C327.125 528.121 498.842 358.55 448.4 185.757C418.35 82.7266 312.1 4.38118 203.702 1.16296C143.601 -0.983826 83.4992 35.5051 70.6211 97.7541C48.083 198.639 145.747 256.593 234.826 246.933C240.193 245.862 245.558 253.372 244.485 258.74C243.412 283.425 220.874 301.669 200.482 313.476C167.212 331.719 127.501 337.085 94.2318 324.207C-27.0441 275.91 -96.805 124.586 -28.1169 4.38119C34.1296 -101.87 156.48 -146.946 274.535 -130.847C478.452 -102.943 620.119 40.8714 748.907 191.124C784.325 230.833 828.327 256.592 876.938 274.561L876.992 287.334Z" fill="#DDDDDD"/>
<path d="M877.204 323.204C811.153 303.814 760.711 257.664 721.001 198.637C578.261 -12.7907 326.049 -211.339 77.0582 -82.5502C20.1767 -53.5731 -18.4603 -0.983982 -35.632 59.117C-66.7558 166.441 1.93227 280.202 104.962 315.621C138.233 327.425 174.723 318.839 200.481 295.23C207.994 287.717 207.994 274.839 197.261 272.692C117.842 253.372 47.0084 191.126 59.8865 104.193C67.3996 52.6779 104.962 16.1877 153.258 2.23422C297.072 -36.4028 455.911 89.1655 465.57 227.614C476.302 398.259 312.097 552.804 143.599 562.464C58.8137 567.829 -24.8993 552.804 -104.317 520.606C-193.397 484.119 -298.575 442.261 -361.894 378.939C-185.884 493.776 36.2757 617.197 248.778 533.487C346.442 493.776 420.496 408.99 455.914 309.178C478.452 245.859 469.864 176.099 424.79 123.509C364.687 50.5298 285.268 -13.866 186.531 -3.13471C125.356 3.30697 63.1086 47.309 59.8878 113.849C55.5942 202.931 142.527 243.713 212.288 275.909C229.458 284.495 187.603 311.328 168.284 318.838C148.966 326.351 127.501 324.206 107.109 317.767C9.44539 290.936 -53.8751 190.052 -44.2165 91.311C-31.3371 -52.503 119.989 -138.36 257.364 -125.482C476.303 -105.091 622.264 59.1157 752.125 225.468C785.395 267.323 828.325 292.008 877.121 310.201L877.204 323.204Z" fill="#DDDDDD"/>
<path d="M877.426 359.676C751.055 323.132 702.759 193.27 622.266 96.6793C498.844 -52.5023 300.295 -166.264 111.406 -91.1367C6.22749 -49.2815 -64.6061 75.2153 -19.5301 183.611C-0.211599 229.761 31.985 268.398 75.9883 293.082C94.2341 303.814 114.625 309.179 136.091 305.961C145.749 304.887 166.14 297.375 158.629 290.936C97.4536 234.053 21.2537 163.218 59.8894 75.2154C87.7951 9.74809 161.848 -21.3758 231.609 -9.57175C336.786 6.52721 428.011 82.7271 461.282 179.318C521.384 358.551 350.738 544.22 173.654 571.051C82.4287 583.929 -4.50385 566.758 -90.3624 538.853C-189.1 507.729 -277.106 462.653 -368.33 407.919C-368.33 407.919 -367.258 403.624 -366.184 401.478C-184.807 505.583 33.0604 625.786 244.488 545.292C388.301 489.483 523.529 319.913 453.768 164.293C420.498 88.0935 350.738 30.1393 271.317 1.16221C192.972 -27.8175 91.0145 0.0881652 60.9621 81.6544C29.8382 165.365 95.3069 243.714 169.36 278.055C173.652 280.202 179.019 284.494 177.946 289.862C169.36 318.839 130.723 315.62 106.039 309.179C53.4516 295.229 14.8147 254.445 -12.0169 208.295C-51.7254 138.535 -40.994 53.75 8.37427 -12.79C64.183 -87.9171 152.188 -121.188 241.268 -116.894C394.74 -108.308 528.896 -21.3745 627.634 95.6079C705.979 187.904 756.421 310.254 877.351 346.481L877.426 359.676Z" fill="#DDDDDD"/>
<path d="M877.596 396.434C817.593 383.233 772.517 345.668 737.101 294.153C657.68 180.391 609.384 67.6997 492.402 -12.7925C374.346 -95.4315 230.533 -141.582 100.671 -76.1143C14.8126 -32.1123 -44.2156 68.7711 -12.019 164.291C0.860473 202.928 18.0322 237.27 53.4483 260.882C65.255 269.468 77.0591 276.981 91.0125 279.128C96.3789 280.199 103.891 276.981 101.744 271.615C82.4254 226.539 45.9365 190.05 40.5702 139.607C35.2026 73.0673 80.2786 12.9637 142.528 -7.42751C199.409 -25.6706 261.657 -19.2316 314.246 10.8183C402.251 62.3334 483.817 142.828 482.745 248.005C479.525 364.989 406.545 463.725 307.807 531.34C251.998 568.902 191.897 583.926 128.575 586.073C47.0106 588.22 -33.4829 571.048 -111.83 546.364C-203.054 516.313 -286.768 475.53 -373.7 431.528C-373.7 431.528 -372.627 427.235 -371.553 424.014C-179.444 521.68 49.156 641.882 263.804 548.511C412.984 484.118 553.577 292.007 441.961 129.947C372.2 29.0627 255.219 -50.3568 135.016 -0.985831C92.0866 17.2573 56.6691 52.6761 45.9365 98.8236C28.7648 175.023 91.0126 225.467 123.209 285.567C126.429 293.08 109.257 294.153 100.671 292.006C77.0604 286.641 57.7419 273.76 39.4974 257.661C3.00726 224.392 -18.458 180.39 -23.8243 134.238C-38.8506 2.23241 82.4254 -102.945 207.995 -108.311C365.76 -114.75 510.647 -26.7447 611.531 95.6067C696.318 199.708 740.32 345.669 877.543 383.168L877.596 396.434Z" fill="#DDDDDD"/>
<path d="M877.68 433.376C802.567 422.94 744.613 368.204 714.563 301.664C612.605 78.4308 391.518 -167.339 124.281 -75.0431C40.5696 -46.0634 -17.3859 39.7938 -6.6533 128.874C-3.43377 155.705 7.29755 179.315 24.4706 201.854C27.6901 205.074 38.4227 210.439 36.2759 204C13.7379 118.143 42.7163 21.5493 130.72 -11.72C259.509 -58.9429 378.639 25.8456 452.692 129.947C496.695 191.122 498.84 267.322 474.157 336.01C428.008 465.871 318.538 573.193 176.87 593.586C103.89 603.246 36.276 595.733 -36.7044 580.708C-161.2 553.877 -266.377 503.434 -379.067 456.211C-379.067 456.211 -377.994 451.919 -376.92 448.698C-204.129 521.679 -27.0445 611.831 169.357 589.293C322.83 572.12 446.251 447.626 481.669 298.445C497.768 231.905 481.669 166.437 438.74 112.775C362.54 18.3298 245.557 -55.7233 125.355 -7.42906C28.7641 31.2079 11.5912 148.192 63.1089 232.976C67.4012 240.489 57.7413 242.636 52.3762 239.418C14.8133 214.733 -5.57795 173.951 -10.9456 131.02C-21.6769 51.5992 21.2523 -21.3799 88.8664 -62.1624C216.581 -138.362 360.395 -94.3603 478.452 -14.9395C602.947 68.7709 653.39 192.196 730.662 312.397C765.007 367.133 813.303 410.062 877.659 420.049L877.68 433.376Z" fill="#DDDDDD"/>
<path d="M877.709 470.31C725.297 454.065 685.586 287.713 621.193 170.729C540.699 23.6972 391.52 -86.8474 224.094 -85.7747C140.382 -84.7006 42.7173 -37.4778 24.4728 51.6003C82.427 -18.1606 176.873 -54.6508 265.951 -24.5996C377.568 12.9633 482.745 106.336 494.55 227.612C507.429 360.695 428.009 480.895 315.319 552.802C162.919 649.393 -14.1655 608.61 -170.858 557.094C-242.764 533.485 -311.452 508.8 -383.358 484.115C-384.431 484.115 -383.358 477.676 -382.286 474.455C-322.185 495.919 -262.082 518.457 -201.983 539.922C-43.1426 597.877 138.234 648.32 295.999 559.24C421.567 488.407 522.453 348.886 485.962 201.851C453.768 68.7707 321.759 -35.3323 184.386 -29.9673C100.673 -26.7465 33.0587 37.6468 10.5206 117.068C-10.9446 55.8925 34.1314 -10.6475 86.7219 -47.1377C217.656 -135.143 372.202 -81.4824 488.111 5.45149C601.874 91.3087 648.024 213.659 711.346 331.714C746.762 396.11 803.644 448.698 877.706 457.011L877.709 470.31Z" fill="#DDDDDD"/>
<path d="M877.69 506.933C787.545 507.728 721.003 440.114 686.66 361.769C643.731 264.105 614.754 162.146 539.626 81.654C454.841 -10.6449 330.345 -90.0656 202.63 -61.0885C312.101 -35.3297 405.472 24.7713 467.72 124.583C566.459 284.494 464.501 477.679 318.54 565.683C122.138 683.74 -100.023 596.806 -299.645 536.705C-328.622 528.12 -357.6 520.606 -387.649 515.241C-385.503 512.021 -386.577 507.728 -386.577 504.51C-357.6 510.949 -328.622 518.46 -299.645 528.12C-123.633 585.002 60.963 654.763 243.414 595.734C406.546 542.072 540.7 362.842 490.258 188.977C445.181 33.3571 280.977 -69.6731 121.064 -41.7687C168.287 -82.5525 239.12 -80.4057 300.294 -69.6744C355.03 -60.0145 400.106 -36.405 447.329 -7.42794C586.848 78.4319 635.145 227.612 699.539 366.06C732.809 435.821 797.203 490.557 877.702 493.791L877.69 506.933Z" fill="#DDDDDD"/>
<path d="M877.669 543.19C780.03 550.655 697.391 481.969 666.268 390.742C617.973 245.856 566.458 65.552 408.691 11.8901C408.691 14.0369 407.619 16.1824 408.691 18.3292C453.768 84.8692 506.357 142.826 512.796 223.318C524.602 367.132 446.254 506.653 321.759 579.632C110.332 703.054 -115.048 601.098 -338.281 556.022C-356.527 551.73 -372.626 551.73 -389.797 546.362C-390.869 546.362 -389.797 536.702 -388.724 536.702C-359.747 537.776 -330.77 545.288 -301.793 552.801C-90.3659 607.537 138.235 700.908 341.076 561.387C448.4 487.334 510.648 372.497 510.648 248.003C511.72 132.092 421.568 50.5271 346.442 -26.7468C531.04 9.74337 614.753 203.998 669.488 367.132C699.538 458.357 775.738 536.702 877.677 530.143L877.669 543.19Z" fill="#DDDDDD"/>
</g>
</svg>
